<?xml version="1.0" encoding="UTF-8" standalone="no"?>
<!-- Created with Inkscape (http://www.inkscape.org/) -->

<svg
   xmlns:dc="http://purl.org/dc/elements/1.1/"
   xmlns:cc="http://creativecommons.org/ns#"
   xmlns:rdf="http://www.w3.org/1999/02/22-rdf-syntax-ns#"
   xmlns:svg="http://www.w3.org/2000/svg"
   xmlns="http://www.w3.org/2000/svg"
   xmlns:sodipodi="http://sodipodi.sourceforge.net/DTD/sodipodi-0.dtd"
   xmlns:inkscape="http://www.inkscape.org/namespaces/inkscape"
   width="80px"
   height="80px"
   viewBox="0 0 80 80"
   version="1.1"
   id="SVGRoot"
   inkscape:version="0.92.2 2405546, 2018-03-11"
   sodipodi:docname="logo.svg"
   inkscape:export-filename="/home/fare/DraftPickIT/src/images/16x16.png"
   inkscape:export-xdpi="96"
   inkscape:export-ydpi="96">
  <sodipodi:namedview
     id="base"
     pagecolor="#ffffff"
     bordercolor="#666666"
     borderopacity="1.0"
     inkscape:pageopacity="0.0"
     inkscape:pageshadow="2"
     inkscape:zoom="6.4"
     inkscape:cx="13.75"
     inkscape:cy="40"
     inkscape:document-units="px"
     inkscape:current-layer="layer1"
     showgrid="false"
     inkscape:window-width="1920"
     inkscape:window-height="1013"
     inkscape:window-x="0"
     inkscape:window-y="0"
     inkscape:window-maximized="1" />
  <defs
     id="defs2565">
    <clipPath
       clipPathUnits="userSpaceOnUse"
       id="clipPath122">
      <path
         d="M 0,500.001 H 500 V 0 H 0 Z"
         id="path120"
         inkscape:connector-curvature="0" />
    </clipPath>
  </defs>
  <metadata
     id="metadata2568">
    <rdf:RDF>
      <cc:Work
         rdf:about="">
        <dc:format>image/svg+xml</dc:format>
        <dc:type
           rdf:resource="http://purl.org/dc/dcmitype/StillImage" />
        <dc:title />
      </cc:Work>
    </rdf:RDF>
  </metadata>
  <g
     id="layer1"
     inkscape:groupmode="layer"
     inkscape:label="Layer 1">
    <g
       transform="matrix(0.74449639,0,0,-0.84104151,-40.945369,176.24117)"
       id="g116">
      <g
         id="g118"
         clip-path="url(#clipPath122)">
        <g
           id="g124"
           transform="translate(86.2561,152.1515)">
          <path
             d="m 0,0 v 15.155 h 26.979 c 5.143,0 9.328,4.185 9.328,9.328 0,5.143 -4.185,9.328 -9.328,9.328 H 0 v 15.155 h 26.979 c 13.5,0 24.483,-10.983 24.483,-24.483 C 51.462,10.983 40.479,0 26.979,0 Z"
             style="fill:none;stroke:#b3b3b3;stroke-width:2.21000004;stroke-linecap:butt;stroke-linejoin:miter;stroke-miterlimit:10;stroke-dasharray:none;stroke-opacity:1"
             id="path126"
             inkscape:connector-curvature="0" />
        </g>
        <g
           id="g128"
           transform="translate(113.2347,155.9405)">
          <path
             d="M 0,0 H -23.19 V 7.578 H 0 c 7.233,0 13.117,5.884 13.117,13.116 0,7.233 -5.884,13.117 -13.117,13.117 h -23.19 v 7.578 H 0 c 11.411,0 20.694,-9.285 20.694,-20.695 C 20.694,9.283 11.411,0 0,0 Z"
             style="fill:none;stroke:#b3b3b3;stroke-width:2.21000004;stroke-linecap:butt;stroke-linejoin:miter;stroke-miterlimit:10;stroke-dasharray:none;stroke-opacity:1"
             id="path130"
             inkscape:connector-curvature="0" />
        </g>
        <g
           id="g132"
           transform="translate(90.0447,193.5401)">
          <path
             d="m 0,0 h 23.19 c 9.337,0 16.906,-7.569 16.906,-16.905 0,-9.337 -7.569,-16.906 -16.906,-16.906 H 0"
             style="fill:none;stroke:#b3b3b3;stroke-width:2.21000004;stroke-linecap:butt;stroke-linejoin:miter;stroke-miterlimit:10;stroke-dasharray:none;stroke-opacity:1"
             id="path134"
             inkscape:connector-curvature="0" />
        </g>
      </g>
    </g>
    <text
       y="62.306355"
       x="42.186432"
       transform="scale(0.94084715,1.0628719)"
       style="font-variant:normal;font-weight:300;font-stretch:normal;font-size:9.7115202px;font-family:'Montserrat Light';-inkscape-font-specification:Montserrat-Light;writing-mode:lr-tb;fill:#5c5c5c;fill-opacity:1;fill-rule:nonzero;stroke:none;stroke-width:0.79129142"
       id="text140">
      <tspan
         style="font-style:normal;font-variant:normal;font-weight:bold;font-stretch:normal;font-family:'Droid Sans Devanagari';-inkscape-font-specification:'Droid Sans Devanagari Bold';text-align:center;text-anchor:middle;stroke-width:0.79129142"
         x="42.186432"
         sodipodi:role="line"
         id="tspan138"
         y="70.898773" />
    </text>
    <path
       style="opacity:0.91600001;fill:#ff3b23;fill-opacity:0.57999998;fill-rule:nonzero;stroke-width:0.15625"
       d="M 25.34375,41.913655 V 37.84375 h 9.353673 c 5.527926,0 9.697913,-0.06351 10.195313,-0.155277 2.941962,-0.542773 5.796033,-3.204221 6.857198,-6.394404 C 53.39247,26.356111 51.412856,20.76165 47.248714,18.573455 45.241959,17.518935 45.388558,17.53125 34.842172,17.53125 H 25.34375 V 13.461395 9.3915395 l 10.195312,0.051825 c 10.069874,0.051187 10.210693,0.056214 11.445313,0.408583 5.246881,1.4974945 9.390067,5.5301135 11.384092,11.0802915 1.484502,4.131967 1.484502,9.378555 0,13.510522 -1.999009,5.564052 -6.30538,9.727944 -11.462217,11.082983 -1.296861,0.34077 -1.566286,0.350265 -11.445313,0.4034 l -10.117187,0.05441 z m 21.171875,1.922333 c 3.68563,-1.0834 6.517991,-3.17398 8.570987,-6.326291 6.308899,-9.687106 1.791725,-23.231197 -8.678651,-26.021685 -0.857756,-0.228603 -2.190902,-0.270499 -10.243899,-0.32193 l -9.257812,-0.05912 v 0.70101 0.70101 l 9.101562,0.06372 c 9.875633,0.06914 9.833755,0.0657 12.024085,0.9876 5.662948,2.383502 9.32433,9.12049 8.57515,15.778387 -0.730503,6.491925 -4.694414,11.524265 -10.298452,13.074283 -1.145348,0.316791 -1.60809,0.334461 -10.300783,0.393318 l -9.101562,0.06163 v 0.700064 0.700064 l 9.257812,-0.05527 c 8.795794,-0.05251 9.312397,-0.07132 10.351563,-0.376782 z m -0.485856,-3.175363 c 4.118395,-1.053308 7.429276,-4.61768 8.712334,-9.379375 0.301916,-1.120469 0.355997,-1.694578 0.345892,-3.671875 -0.01439,-2.816304 -0.292831,-4.041707 -1.455639,-6.40625 C 52.005623,17.895202 49.3806,15.631425 46.125587,14.729416 45.008598,14.419882 44.578644,14.40625 35.932828,14.40625 H 26.90625 v 0.703125 0.703125 h 8.803131 c 8.255202,0 8.878249,0.01921 10.009992,0.308663 1.866524,0.477376 2.952482,1.128681 4.562044,2.73609 1.196278,1.194679 1.537608,1.654864 2.149983,2.898631 1.056781,2.146381 1.383906,3.548482 1.383906,5.931616 0,2.384228 -0.326965,3.78453 -1.386384,5.9375 -0.616892,1.253659 -0.951064,1.703894 -2.149985,2.896708 -1.088264,1.082722 -1.693054,1.546122 -2.591437,1.985595 -2.134609,1.044216 -2.204088,1.050316 -11.992188,1.052888 l -8.789062,0.0023 v 0.703125 0.703125 h 8.959381 c 8.405522,0 9.033858,-0.01905 10.164138,-0.308125 z"
       id="path3162"
       inkscape:connector-curvature="0" />
    <path
       style="opacity:0.91600001;fill:#caa669;fill-opacity:0;fill-rule:nonzero;stroke-width:0.15625"
       d="m 22.53125,41.913144 v -7.180605 l 10.976562,-0.04596 10.976563,-0.04596 0.903841,-0.364811 c 2.003161,-0.80852 3.640298,-3.014644 4.048462,-5.455502 0.523819,-3.132481 -1.300639,-6.612043 -4.048462,-7.721127 L 44.484375,20.734375 33.507812,20.68934 22.53125,20.644304 v -7.18711 -7.1871096 l 11.835937,0.048227 11.835938,0.048227 1.328125,0.3675261 C 54.439106,8.645645 59.697514,14.294032 61.606637,21.853325 64.437072,33.060605 58.663953,44.943133 48.790998,48.231128 46.227355,49.0849 46.07403,49.09375 33.84563,49.09375 H 22.53125 Z m 23.554631,5.225608 c 5.333555,-1.011758 9.890975,-4.614193 12.540105,-9.912386 0.642397,-1.284779 1.620072,-4.272093 1.894555,-5.788866 0.309746,-1.711652 0.270703,-6.132169 -0.06926,-7.840972 -0.993076,-4.99169 -3.712333,-9.497597 -7.4433,-12.333823 C 51.711652,10.277254 48.920784,8.9009019 47.296875,8.4461998 46.066116,8.1015816 45.877912,8.0953475 35.070312,8.0412028 L 24.09375,7.9862117 V 13.461856 18.9375 h 9.822423 c 6.02768,0 10.147318,0.06161 10.663386,0.159485 1.962819,0.372241 3.817713,1.668285 5.009385,3.500138 1.903312,2.925799 1.904743,7.241468 0.0034,10.180754 -1.158233,1.790487 -3.082449,3.134062 -5.012758,3.500137 -0.51607,0.09787 -4.635708,0.159486 -10.663388,0.159486 H 24.09375 v 5.46875 5.46875 h 10.373364 c 8.604045,0 10.585784,-0.0403 11.618767,-0.236248 z"
       id="path3164"
       inkscape:connector-curvature="0" />
    <path
       style="opacity:0.91600001;fill:#caa669;fill-opacity:0;fill-rule:nonzero;stroke-width:0.15625"
       d="M 25.34375,41.915631 V 37.84375 h 9.431798 c 5.616526,0 9.764132,-0.06303 10.253363,-0.155806 2.449028,-0.464449 4.980609,-2.585658 6.247556,-5.234819 0.840867,-1.758239 1.022814,-2.648661 1.005724,-4.921875 -0.01234,-1.641627 -0.07757,-2.144177 -0.408958,-3.151039 C 50.704055,20.827898 48.0416,18.253264 44.963491,17.698382 44.372812,17.591902 40.644596,17.53125 34.690053,17.53125 H 25.34375 V 13.457223 9.3831952 l 9.492187,0.093683 c 5.220704,0.051526 9.984375,0.1321456 10.585938,0.1791552 3.488669,0.2726244 7.650177,2.8581156 10.273433,6.3827516 1.101017,1.479338 2.478404,4.238685 2.928872,5.867465 1.316895,4.761569 0.943129,10.036986 -1.002824,14.154083 -1.223279,2.58812 -3.166553,5.082884 -5.153048,6.615453 -2.162952,1.668706 -5.079385,2.886687 -7.294111,3.046219 -0.637214,0.0459 -5.359744,0.124417 -10.49451,0.174481 l -9.335937,0.09103 z m 21.994137,1.690574 c 2.317116,-0.81741 3.900608,-1.815372 5.672475,-3.574955 2.265835,-2.250127 3.614165,-4.649239 4.472054,-7.957223 0.482507,-1.860529 0.650103,-4.976096 0.370529,-6.888104 -0.949236,-6.491861 -4.932167,-11.525758 -10.71232,-13.53895 l -1.25,-0.435367 -9.492188,-0.05588 -9.492187,-0.05588 v 0.715698 0.715698 l 2.382812,0.01102 c 1.310547,0.0061 5.546875,0.06516 9.414063,0.131322 l 7.03125,0.120299 1.368939,0.475669 c 4.396384,1.527619 7.649553,5.26724 9.060959,10.415859 0.296922,1.083135 0.346936,1.654435 0.343514,3.923954 -0.0033,2.219606 -0.05984,2.867742 -0.343684,3.942822 -1.421697,5.384844 -4.643275,9.037236 -9.414103,10.673026 -0.962422,0.329991 -1.367581,0.354624 -7.734375,0.470263 -3.695313,0.06712 -7.931641,0.127934 -9.414063,0.135148 l -2.695312,0.01312 v 0.713958 0.713958 l 9.414062,-0.0499 9.414063,-0.04989 z m -0.743437,-3.04848 c 4.01902,-1.528011 6.597691,-4.346652 8.057861,-8.807725 0.403994,-1.234269 0.43478,-1.510317 0.43565,-3.90625 0.0011,-3.043555 -0.194234,-4.030242 -1.231319,-6.219549 -1.47647,-3.11686 -3.523217,-5.221482 -6.247267,-6.423918 -1.739161,-0.767691 -2.057358,-0.789261 -11.679688,-0.791723 l -9.023437,-0.0023 v 0.683206 0.683205 l 9.023437,0.08385 c 9.884988,0.09185 9.727522,0.07748 11.750729,1.072605 0.738964,0.363464 1.440236,0.917769 2.527609,1.997894 1.309714,1.300986 1.597284,1.687391 2.217208,2.979244 1.075176,2.240548 1.267439,3.120909 1.262576,5.78125 -0.0049,2.666212 -0.202914,3.573031 -1.262576,5.78125 -0.620317,1.292675 -0.907469,1.678323 -2.223477,2.986167 -1.671369,1.661 -3.023829,2.453389 -4.779881,2.800472 -0.621695,0.122878 -3.898175,0.212419 -9.726563,0.265814 l -8.789062,0.08052 v 0.690357 0.690354 l 9.414062,-0.04885 c 9.112516,-0.04729 9.441613,-0.05933 10.274138,-0.375852 z"
       id="path3166"
       inkscape:connector-curvature="0" />
    <path
       style="opacity:0.91600001;fill:#caa669;fill-opacity:0;fill-rule:nonzero;stroke-width:0.15625"
       d="m 22.53125,41.913144 v -7.180605 l 10.976562,-0.04596 10.976563,-0.04596 0.903841,-0.364811 c 2.003161,-0.80852 3.640298,-3.014644 4.048462,-5.455502 0.523819,-3.132481 -1.300639,-6.612043 -4.048462,-7.721127 L 44.484375,20.734375 33.507812,20.68934 22.53125,20.644304 v -7.18711 -7.1871096 l 11.835937,0.048227 11.835938,0.048227 1.328125,0.3675261 C 54.439106,8.645645 59.697514,14.294032 61.606637,21.853325 64.437072,33.060605 58.663953,44.943133 48.790998,48.231128 46.227355,49.0849 46.07403,49.09375 33.84563,49.09375 H 22.53125 Z m 23.554631,5.225608 c 5.333555,-1.011758 9.890975,-4.614193 12.540105,-9.912386 0.642397,-1.284779 1.620072,-4.272093 1.894555,-5.788866 0.309746,-1.711652 0.270703,-6.132169 -0.06926,-7.840972 -0.993076,-4.99169 -3.712333,-9.497597 -7.4433,-12.333823 C 51.711652,10.277254 48.920784,8.9009019 47.296875,8.4461998 46.066116,8.1015816 45.877912,8.0953475 35.070312,8.0412028 L 24.09375,7.9862117 V 13.461856 18.9375 h 9.822423 c 6.02768,0 10.147318,0.06161 10.663386,0.159485 1.962819,0.372241 3.817713,1.668285 5.009385,3.500138 1.903312,2.925799 1.904743,7.241468 0.0034,10.180754 -1.158233,1.790487 -3.082449,3.134062 -5.012758,3.500137 -0.51607,0.09787 -4.635708,0.159486 -10.663388,0.159486 H 24.09375 v 5.46875 5.46875 h 10.373364 c 8.604045,0 10.585784,-0.0403 11.618767,-0.236248 z"
       id="path3168"
       inkscape:connector-curvature="0" />
    <path
       style="opacity:0.91600001;fill:#caa669;fill-opacity:0;fill-rule:nonzero;stroke-width:0.15625"
       d="m 22.53125,41.913144 v -7.180605 l 10.976562,-0.04596 10.976563,-0.04596 0.903841,-0.364811 c 2.003161,-0.80852 3.640298,-3.014644 4.048462,-5.455502 0.523819,-3.132481 -1.300639,-6.612043 -4.048462,-7.721127 L 44.484375,20.734375 33.507812,20.68934 22.53125,20.644304 v -7.18711 -7.1871096 l 11.835937,0.048227 11.835938,0.048227 1.328125,0.3675261 C 54.439106,8.645645 59.697514,14.294032 61.606637,21.853325 64.437072,33.060605 58.663953,44.943133 48.790998,48.231128 46.227355,49.0849 46.07403,49.09375 33.84563,49.09375 H 22.53125 Z m 23.554631,5.225608 c 5.333555,-1.011758 9.890975,-4.614193 12.540105,-9.912386 0.642397,-1.284779 1.620072,-4.272093 1.894555,-5.788866 0.309746,-1.711652 0.270703,-6.132169 -0.06926,-7.840972 -0.993076,-4.99169 -3.712333,-9.497597 -7.4433,-12.333823 C 51.711652,10.277254 48.920784,8.9009019 47.296875,8.4461998 46.066116,8.1015816 45.877912,8.0953475 35.070312,8.0412028 L 24.09375,7.9862117 V 13.461856 18.9375 h 9.822423 c 6.02768,0 10.147318,0.06161 10.663386,0.159485 1.962819,0.372241 3.817713,1.668285 5.009385,3.500138 1.903312,2.925799 1.904743,7.241468 0.0034,10.180754 -1.158233,1.790487 -3.082449,3.134062 -5.012758,3.500137 -0.51607,0.09787 -4.635708,0.159486 -10.663388,0.159486 H 24.09375 v 5.46875 5.46875 h 10.373364 c 8.604045,0 10.585784,-0.0403 11.618767,-0.236248 z"
       id="path3170"
       inkscape:connector-curvature="0" />
    <path
       style="opacity:0.91600001;fill:#caa669;fill-opacity:0;fill-rule:nonzero;stroke-width:0.15625"
       d="m 22.53125,41.913144 v -7.180605 l 10.976562,-0.04596 10.976563,-0.04596 0.903841,-0.364811 c 2.003161,-0.80852 3.640298,-3.014644 4.048462,-5.455502 0.523819,-3.132481 -1.300639,-6.612043 -4.048462,-7.721127 L 44.484375,20.734375 33.507812,20.68934 22.53125,20.644304 v -7.18711 -7.1871096 l 11.835937,0.048227 11.835938,0.048227 1.328125,0.3675261 C 54.439106,8.645645 59.697514,14.294032 61.606637,21.853325 64.437072,33.060605 58.663953,44.943133 48.790998,48.231128 46.227355,49.0849 46.07403,49.09375 33.84563,49.09375 H 22.53125 Z m 23.554631,5.225608 c 5.333555,-1.011758 9.890975,-4.614193 12.540105,-9.912386 0.642397,-1.284779 1.620072,-4.272093 1.894555,-5.788866 0.309746,-1.711652 0.270703,-6.132169 -0.06926,-7.840972 -0.993076,-4.99169 -3.712333,-9.497597 -7.4433,-12.333823 C 51.711652,10.277254 48.920784,8.9009019 47.296875,8.4461998 46.066116,8.1015816 45.877912,8.0953475 35.070312,8.0412028 L 24.09375,7.9862117 V 13.461856 18.9375 h 9.822423 c 6.02768,0 10.147318,0.06161 10.663386,0.159485 1.962819,0.372241 3.817713,1.668285 5.009385,3.500138 1.903312,2.925799 1.904743,7.241468 0.0034,10.180754 -1.158233,1.790487 -3.082449,3.134062 -5.012758,3.500137 -0.51607,0.09787 -4.635708,0.159486 -10.663388,0.159486 H 24.09375 v 5.46875 5.46875 h 10.373364 c 8.604045,0 10.585784,-0.0403 11.618767,-0.236248 z"
       id="path3172"
       inkscape:connector-curvature="0" />
    <path
       style="opacity:0.91600001;fill:#caa669;fill-opacity:1;fill-rule:nonzero;stroke-width:0.15625"
       d="m 22.53125,41.913144 v -7.180605 l 10.976562,-0.04596 10.976563,-0.04596 0.903841,-0.364811 c 2.003161,-0.80852 3.640298,-3.014644 4.048462,-5.455502 0.523819,-3.132481 -1.300639,-6.612043 -4.048462,-7.721127 L 44.484375,20.734375 33.507812,20.68934 22.53125,20.644304 v -7.18711 -7.1871096 l 11.835937,0.048227 11.835938,0.048227 1.328125,0.3675261 C 54.439106,8.645645 59.697514,14.294032 61.606637,21.853325 64.437072,33.060605 58.663953,44.943133 48.790998,48.231128 46.227355,49.0849 46.07403,49.09375 33.84563,49.09375 H 22.53125 Z m 23.554631,5.225608 c 5.333555,-1.011758 9.890975,-4.614193 12.540105,-9.912386 0.642397,-1.284779 1.620072,-4.272093 1.894555,-5.788866 0.309746,-1.711652 0.270703,-6.132169 -0.06926,-7.840972 -0.993076,-4.99169 -3.712333,-9.497597 -7.4433,-12.333823 C 51.711652,10.277254 48.920784,8.9009019 47.296875,8.4461998 46.066116,8.1015816 45.877912,8.0953475 35.070312,8.0412028 L 24.09375,7.9862117 V 13.461856 18.9375 h 9.822423 c 6.02768,0 10.147318,0.06161 10.663386,0.159485 1.962819,0.372241 3.817713,1.668285 5.009385,3.500138 1.903312,2.925799 1.904743,7.241468 0.0034,10.180754 -1.158233,1.790487 -3.082449,3.134062 -5.012758,3.500137 -0.51607,0.09787 -4.635708,0.159486 -10.663388,0.159486 H 24.09375 v 5.46875 5.46875 h 10.373364 c 8.604045,0 10.585784,-0.0403 11.618767,-0.236248 z"
       id="path3174"
       inkscape:connector-curvature="0" />
    <path
       style="opacity:0.91600001;fill:#caa669;fill-opacity:1;fill-rule:nonzero;stroke-width:0.15625"
       d="M 25.34375,41.915631 V 37.84375 h 9.431798 c 5.616526,0 9.764132,-0.06303 10.253363,-0.155806 2.449028,-0.464449 4.980609,-2.585658 6.247556,-5.234819 0.840867,-1.758239 1.022814,-2.648661 1.005724,-4.921875 -0.01234,-1.641627 -0.07757,-2.144177 -0.408958,-3.151039 C 50.704055,20.827898 48.0416,18.253264 44.963491,17.698382 44.372812,17.591902 40.644596,17.53125 34.690053,17.53125 H 25.34375 V 13.457223 9.3831952 l 9.492187,0.093683 c 5.220704,0.051526 9.984375,0.1321456 10.585938,0.1791552 3.488669,0.2726244 7.650177,2.8581156 10.273433,6.3827516 1.101017,1.479338 2.478404,4.238685 2.928872,5.867465 1.316895,4.761569 0.943129,10.036986 -1.002824,14.154083 -1.223279,2.58812 -3.166553,5.082884 -5.153048,6.615453 -2.162952,1.668706 -5.079385,2.886687 -7.294111,3.046219 -0.637214,0.0459 -5.359744,0.124417 -10.49451,0.174481 l -9.335937,0.09103 z m 21.994137,1.690574 c 2.317116,-0.81741 3.900608,-1.815372 5.672475,-3.574955 2.265835,-2.250127 3.614165,-4.649239 4.472054,-7.957223 0.482507,-1.860529 0.650103,-4.976096 0.370529,-6.888104 -0.949236,-6.491861 -4.932167,-11.525758 -10.71232,-13.53895 l -1.25,-0.435367 -9.492188,-0.05588 -9.492187,-0.05588 v 0.715698 0.715698 l 2.382812,0.01102 c 1.310547,0.0061 5.546875,0.06516 9.414063,0.131322 l 7.03125,0.120299 1.368939,0.475669 c 4.396384,1.527619 7.649553,5.26724 9.060959,10.415859 0.296922,1.083135 0.346936,1.654435 0.343514,3.923954 -0.0033,2.219606 -0.05984,2.867742 -0.343684,3.942822 -1.421697,5.384844 -4.643275,9.037236 -9.414103,10.673026 -0.962422,0.329991 -1.367581,0.354624 -7.734375,0.470263 -3.695313,0.06712 -7.931641,0.127934 -9.414063,0.135148 l -2.695312,0.01312 v 0.713958 0.713958 l 9.414062,-0.0499 9.414063,-0.04989 z m -0.743437,-3.04848 c 4.01902,-1.528011 6.597691,-4.346652 8.057861,-8.807725 0.403994,-1.234269 0.43478,-1.510317 0.43565,-3.90625 0.0011,-3.043555 -0.194234,-4.030242 -1.231319,-6.219549 -1.47647,-3.11686 -3.523217,-5.221482 -6.247267,-6.423918 -1.739161,-0.767691 -2.057358,-0.789261 -11.679688,-0.791723 l -9.023437,-0.0023 v 0.683206 0.683205 l 9.023437,0.08385 c 9.884988,0.09185 9.727522,0.07748 11.750729,1.072605 0.738964,0.363464 1.440236,0.917769 2.527609,1.997894 1.309714,1.300986 1.597284,1.687391 2.217208,2.979244 1.075176,2.240548 1.267439,3.120909 1.262576,5.78125 -0.0049,2.666212 -0.202914,3.573031 -1.262576,5.78125 -0.620317,1.292675 -0.907469,1.678323 -2.223477,2.986167 -1.671369,1.661 -3.023829,2.453389 -4.779881,2.800472 -0.621695,0.122878 -3.898175,0.212419 -9.726563,0.265814 l -8.789062,0.08052 v 0.690357 0.690354 l 9.414062,-0.04885 c 9.112516,-0.04729 9.441613,-0.05933 10.274138,-0.375852 z"
       id="path3176"
       inkscape:connector-curvature="0" />
    <path
       style="opacity:0.91600001;fill:#caa669;fill-opacity:1;fill-rule:nonzero;stroke-width:0.15625"
       d="m 27.417557,63 c 0,-0.386719 0.03047,-0.544922 0.06771,-0.351563 0.03724,0.19336 0.03724,0.509766 0,0.703125 -0.03724,0.19336 -0.06771,0.03516 -0.06771,-0.351562 z"
       id="path3192"
       inkscape:connector-curvature="0" />
    <path
       style="fill:#c8a76f;fill-opacity:1;stroke-width:0.15625"
       d=""
       id="path178"
       inkscape:connector-curvature="0" />
    <path
       style="fill:#c8a76f;fill-opacity:1;stroke-width:0.15625"
       d="m 0.65625,62.450329 v -3.706804 l 1.9221564,0.06399 c 1.7444861,0.05808 1.9887541,0.10302 2.642652,0.48623 0.8656975,0.507332 1.3170116,1.189383 1.5479607,2.339363 0.3350067,1.668121 -0.3521324,3.386614 -1.6207558,4.05341 -0.5559217,0.292196 -0.9751678,0.358837 -2.5779508,0.409779 L 0.65625,66.157133 Z m 3.6087517,2.026288 C 5.4830827,63.846723 5.5067131,61.071747 4.299313,60.447376 4.0550827,60.321079 3.5222,60.167801 3.1151289,60.106757 L 2.375,59.995768 v 2.460854 2.460854 l 0.7058178,-0.09674 c 0.3881997,-0.05321 0.9210825,-0.208061 1.1841839,-0.344116 z"
       id="path180"
       inkscape:connector-curvature="0" />
    <path
       style="fill:#c8a76f;fill-opacity:1;stroke-width:0.15625"
       d="m 0.65625,62.449805 v -3.706023 l 1.8359375,0.108935 c 2.0801945,0.123428 2.9350283,0.421536 3.5373572,1.233591 0.8208555,1.106669 0.9642791,2.778711 0.35045,4.085567 -0.6633277,1.412239 -1.2914272,1.714744 -3.8878072,1.872442 L 0.65625,66.155828 Z m 3.567703,2.075741 C 5.3471877,63.992386 5.5433844,61.3789 4.5237039,60.53264 4.4050958,60.434204 3.8731158,60.252202 3.3415264,60.12819 L 2.375,59.902715 v 2.544095 2.544095 l 0.7161405,-0.13379 c 0.3938773,-0.07358 0.9036429,-0.22279 1.1328125,-0.331569 z"
       id="path182"
       inkscape:connector-curvature="0" />
    <path
       style="fill:#c8a76f;fill-opacity:1;stroke-width:0.15625"
       d="M 8.3125,62.453125 V 58.78125 l 1.6015625,8.72e-4 c 2.0279175,0.0011 2.6944195,0.179186 3.1027635,0.82903 0.24242,0.38579 0.298807,0.690388 0.249866,1.349755 -0.05585,0.752489 -0.130738,0.909909 -0.643831,1.353442 -0.541158,0.467794 -0.558503,0.508933 -0.255169,0.605207 0.215967,0.06855 0.561051,0.594166 1.025757,1.562397 0.385166,0.802506 0.700301,1.500489 0.700301,1.551074 0,0.05058 -0.37378,0.09197 -0.830623,0.09197 H 12.432504 L 12.068583,65.226562 C 11.501961,63.827704 11.056579,63.3125 10.413923,63.3125 H 9.875 V 64.71875 66.125 H 9.09375 8.3125 Z m 3.191964,-0.636161 c 0.321198,-0.321197 0.314084,-1.138488 -0.01306,-1.499973 -0.174936,-0.193303 -0.478221,-0.285741 -0.9375,-0.285741 H 9.875 v 1.015625 1.015625 h 0.691964 c 0.420725,0 0.788211,-0.09625 0.9375,-0.245536 z"
       id="path184"
       inkscape:connector-curvature="0" />
    <path
       style="fill:#c8a76f;fill-opacity:1;stroke-width:0.15625"
       d=""
       id="path186"
       inkscape:connector-curvature="0" />
    <path
       style="fill:#c8a76f;fill-opacity:1;stroke-width:0.15625"
       d="m 15.745994,62.577976 c 0.634988,-1.959293 1.155814,-3.618298 1.15739,-3.686678 0.0016,-0.06838 0.46528,-0.103535 1.030452,-0.07813 l 1.027587,0.0462 1.157795,3.515625 c 0.636788,1.933594 1.158749,3.568359 1.159914,3.632812 0.0012,0.06445 -0.334034,0.117188 -0.744887,0.117188 -0.738655,0 -0.749572,-0.0074 -0.976563,-0.664063 l -0.229557,-0.664062 -1.352212,-0.04493 -1.352211,-0.04493 -0.22257,0.669928 c -0.219685,0.661242 -0.232858,0.670533 -1.016116,0.716653 l -0.793546,0.04672 z m 3.128342,0.617336 c -0.04632,-0.15039 -0.23342,-0.765625 -0.415771,-1.367187 -0.182352,-0.601563 -0.386754,-1.152018 -0.454228,-1.223234 -0.106947,-0.112878 -0.551049,1.128905 -0.87054,2.434171 l -0.105174,0.429688 h 0.964968 c 0.846935,0 0.954666,-0.03345 0.880745,-0.273438 z"
       id="path188"
       inkscape:connector-curvature="0" />
    <path
       style="fill:#c8a76f;fill-opacity:1;stroke-width:0.15625"
       d="M 22.375,62.453125 V 58.78125 h 2.265625 2.265625 v 0.619137 0.619136 l -1.445312,0.04493 -1.445313,0.04493 -0.04762,0.742187 -0.04762,0.742188 H 25.335189 26.75 V 62.296875 63 H 25.34375 23.9375 v 1.5625 1.5625 H 23.15625 22.375 Z"
       id="path190"
       inkscape:connector-curvature="0" />
    <path
       style="fill:#c8a76f;fill-opacity:1;stroke-width:0.15625"
       d="M 30.03125,63.078125 V 60.03125 H 28.9375 27.84375 v -0.625 -0.625 h 2.96875 2.96875 v 0.617861 0.617861 l -1.054687,0.0462 -1.054688,0.0462 -0.04244,3.007812 -0.04244,3.007813 H 30.809126 30.03125 Z"
       id="path192"
       inkscape:connector-curvature="0" />
    <path
       style="fill:#c8a76f;fill-opacity:1;stroke-width:0.15625"
       d="M 38,62.453125 V 58.78125 h 1.838375 c 1.494365,0 1.940255,0.05447 2.382813,0.291109 0.769499,0.411448 1.133886,1.107839 1.124529,2.149123 -0.01362,1.516264 -0.699173,2.126363 -2.525179,2.247268 l -1.179913,0.07813 -0.04538,1.289062 -0.04538,1.289063 H 38.774931 38 Z m 3.464259,-0.492967 c 0.390652,-0.353534 0.372045,-1.217604 -0.03498,-1.624633 -0.25055,-0.25055 -0.481317,-0.310379 -1.054688,-0.273438 l -0.733962,0.04729 -0.0462,1.054687 -0.0462,1.054688 h 0.815148 c 0.539235,0 0.911867,-0.08753 1.100889,-0.258592 z"
       id="path194"
       inkscape:connector-curvature="0" />
    <path
       style="fill:#c8a76f;fill-opacity:1;stroke-width:0.15625"
       d="M 44.71875,62.453125 V 58.78125 H 45.5 46.28125 V 62.453125 66.125 H 45.5 44.71875 Z"
       id="path196"
       inkscape:connector-curvature="0" />
    <path
       style="fill:#c8a76f;fill-opacity:1;stroke-width:0.15625"
       d="m 49.796875,65.985021 c -0.765872,-0.354587 -1.388672,-0.998725 -1.710461,-1.769065 -0.344825,-0.825485 -0.317952,-2.831998 0.04874,-3.639171 0.371006,-0.816672 1.254691,-1.580581 2.089358,-1.806164 0.749015,-0.202434 2.011567,-0.118351 2.658302,0.177036 0.371325,0.169598 0.429687,0.287156 0.429687,0.865512 v 0.669259 l -0.72613,-0.321202 c -1.853731,-0.819993 -3.387208,0.510466 -3.127199,2.713186 0.223167,1.890608 1.485151,2.622072 3.189267,1.848546 L 53.3125,64.421529 v 0.67852 c 0,0.64633 -0.0298,0.690444 -0.628162,0.92986 -0.834771,0.33401 -2.111968,0.314155 -2.887463,-0.04489 z"
       id="path198"
       inkscape:connector-curvature="0" />
    <path
       style="fill:#c8a76f;fill-opacity:1;stroke-width:0.15625"
       d="M 54.875,62.453125 V 58.78125 h 0.78125 0.78125 v 1.341146 c 0,0.73763 0.05971,1.317708 0.132681,1.289062 0.07297,-0.02865 0.649456,-0.632161 1.281071,-1.341146 l 1.14839,-1.289062 h 0.916516 0.916516 l -1.581886,1.74078 -1.581886,1.74078 0.447523,0.485782 c 0.246137,0.267181 1.031367,1.136174 1.744956,1.931095 L 61.158815,66.125 h -1.010206 -1.010206 l -1.225127,-1.40625 c -0.67382,-0.773438 -1.281523,-1.40625 -1.350452,-1.40625 -0.06893,0 -0.125324,0.632812 -0.125324,1.40625 V 66.125 H 55.65625 54.875 Z"
       id="path200"
       inkscape:connector-curvature="0" />
    <path
       style="fill:#c8a76f;fill-opacity:1;stroke-width:0.15625"
       d="M 65.1875,62.453125 V 58.78125 h 1.004399 1.004398 l 0.338837,0.898437 c 0.18636,0.494141 0.515965,1.373047 0.732455,1.953125 0.216489,0.580079 0.439263,1.054688 0.495052,1.054688 0.05579,0 0.423098,-0.861328 0.816242,-1.914063 l 0.714807,-1.914062 1.040655,-0.0462 1.040655,-0.0462 V 62.445986 66.125 H 71.671875 70.96875 v -2.760417 c 0,-1.518229 -0.05273,-2.708363 -0.117188,-2.644741 -0.06445,0.06362 -0.441147,0.971824 -0.837097,2.018229 l -0.71991,1.902554 h -0.520441 -0.52044 L 67.517556,62.71624 c -0.404865,-1.058413 -0.778348,-1.966616 -0.829962,-2.01823 -0.05161,-0.05161 -0.09384,1.148344 -0.09384,2.666573 V 66.125 H 65.890625 65.1875 Z"
       id="path202"
       inkscape:connector-curvature="0" />
    <path
       style="fill:#c8a76f;fill-opacity:1;stroke-width:0.15625"
       d="M 74.25,62.453125 V 58.78125 h 2.265625 2.265625 v 0.625 0.625 H 77.296875 75.8125 v 0.78125 0.78125 H 77.21875 78.625 V 62.296875 63 H 77.21875 75.8125 v 0.9375 0.9375 h 1.484375 1.484375 V 65.5 66.125 H 76.515625 74.25 Z"
       id="path204"
       inkscape:connector-curvature="0" />
  </g>
</svg>
