<?xml version="1.0" encoding="UTF-8" standalone="no"?>
<!-- Created with Inkscape (http://www.inkscape.org/) -->

<svg
   xmlns:dc="http://purl.org/dc/elements/1.1/"
   xmlns:cc="http://creativecommons.org/ns#"
   xmlns:rdf="http://www.w3.org/1999/02/22-rdf-syntax-ns#"
   xmlns:svg="http://www.w3.org/2000/svg"
   xmlns="http://www.w3.org/2000/svg"
   xmlns:sodipodi="http://sodipodi.sourceforge.net/DTD/sodipodi-0.dtd"
   xmlns:inkscape="http://www.inkscape.org/namespaces/inkscape"
   width="80px"
   height="80px"
   viewBox="0 0 80 80"
   version="1.1"
   id="SVGRoot"
   inkscape:version="0.92.3 (unknown)"
   sodipodi:docname="drawing.svg">
  <sodipodi:namedview
     id="base"
     pagecolor="#ffffff"
     bordercolor="#666666"
     borderopacity="1.0"
     inkscape:pageopacity="0.0"
     inkscape:pageshadow="2"
     inkscape:zoom="6.4"
     inkscape:cx="40"
     inkscape:cy="40"
     inkscape:document-units="px"
     inkscape:current-layer="layer1"
     showgrid="false"
     inkscape:window-width="1920"
     inkscape:window-height="1019"
     inkscape:window-x="1920"
     inkscape:window-y="0"
     inkscape:window-maximized="1" />
  <defs
     id="defs2565">
    <clipPath
       clipPathUnits="userSpaceOnUse"
       id="clipPath122">
      <path
         d="M 0,500.001 H 500 V 0 H 0 Z"
         id="path120"
         inkscape:connector-curvature="0" />
    </clipPath>
  </defs>
  <metadata
     id="metadata2568">
    <rdf:RDF>
      <cc:Work
         rdf:about="">
        <dc:format>image/svg+xml</dc:format>
        <dc:type
           rdf:resource="http://purl.org/dc/dcmitype/StillImage" />
        <dc:title></dc:title>
      </cc:Work>
    </rdf:RDF>
  </metadata>
  <g
     id="layer1"
     inkscape:groupmode="layer"
     inkscape:label="Layer 1">
    <g
       transform="matrix(0.74449639,0,0,-0.84104151,-40.945369,176.24117)"
       id="g116">
      <g
         id="g118"
         clip-path="url(#clipPath122)">
        <g
           id="g124"
           transform="translate(86.2561,152.1515)">
          <path
             d="m 0,0 v 15.155 h 26.979 c 5.143,0 9.328,4.185 9.328,9.328 0,5.143 -4.185,9.328 -9.328,9.328 H 0 v 15.155 h 26.979 c 13.5,0 24.483,-10.983 24.483,-24.483 C 51.462,10.983 40.479,0 26.979,0 Z"
             style="fill:none;stroke:#b3b3b3;stroke-width:2.21000004;stroke-linecap:butt;stroke-linejoin:miter;stroke-miterlimit:10;stroke-dasharray:none;stroke-opacity:1"
             id="path126"
             inkscape:connector-curvature="0" />
        </g>
        <g
           id="g128"
           transform="translate(113.2347,155.9405)">
          <path
             d="M 0,0 H -23.19 V 7.578 H 0 c 7.233,0 13.117,5.884 13.117,13.116 0,7.233 -5.884,13.117 -13.117,13.117 h -23.19 v 7.578 H 0 c 11.411,0 20.694,-9.285 20.694,-20.695 C 20.694,9.283 11.411,0 0,0 Z"
             style="fill:none;stroke:#b3b3b3;stroke-width:2.21000004;stroke-linecap:butt;stroke-linejoin:miter;stroke-miterlimit:10;stroke-dasharray:none;stroke-opacity:1"
             id="path130"
             inkscape:connector-curvature="0" />
        </g>
        <g
           id="g132"
           transform="translate(90.0447,193.5401)">
          <path
             d="m 0,0 h 23.19 c 9.337,0 16.906,-7.569 16.906,-16.905 0,-9.337 -7.569,-16.906 -16.906,-16.906 H 0"
             style="fill:none;stroke:#b3b3b3;stroke-width:2.21000004;stroke-linecap:butt;stroke-linejoin:miter;stroke-miterlimit:10;stroke-dasharray:none;stroke-opacity:1"
             id="path134"
             inkscape:connector-curvature="0" />
        </g>
      </g>
    </g>
    <text
       y="64.33506"
       x="3.4298694"
       transform="scale(0.94084715,1.0628719)"
       style="font-variant:normal;font-weight:300;font-stretch:normal;font-size:9.7115202px;font-family:'Montserrat Light';-inkscape-font-specification:Montserrat-Light;writing-mode:lr-tb;fill:#5c5c5c;fill-opacity:1;fill-rule:nonzero;stroke:none;stroke-width:0.79129142"
       id="text140">
      <tspan
         style="font-style:normal;font-variant:normal;font-weight:bold;font-stretch:normal;font-family:'Montserrat Light';-inkscape-font-specification:'Montserrat Light, Bold';stroke-width:0.79129142"
         x="3.4298694"
         sodipodi:role="line"
         id="tspan138"
         y="64.33506">DRAFT PICK IT</tspan>
    </text>
    <path
       style="opacity:0.91600001;fill:#ff3b23;fill-opacity:0.57999998;fill-rule:nonzero;stroke-width:0.15625"
       d="M 25.34375,41.913655 V 37.84375 h 9.353673 c 5.527926,0 9.697913,-0.06351 10.195313,-0.155277 2.941962,-0.542773 5.796033,-3.204221 6.857198,-6.394404 C 53.39247,26.356111 51.412856,20.76165 47.248714,18.573455 45.241959,17.518935 45.388558,17.53125 34.842172,17.53125 H 25.34375 V 13.461395 9.3915395 l 10.195312,0.051825 c 10.069874,0.051187 10.210693,0.056214 11.445313,0.408583 5.246881,1.4974945 9.390067,5.5301135 11.384092,11.0802915 1.484502,4.131967 1.484502,9.378555 0,13.510522 -1.999009,5.564052 -6.30538,9.727944 -11.462217,11.082983 -1.296861,0.34077 -1.566286,0.350265 -11.445313,0.4034 l -10.117187,0.05441 z m 21.171875,1.922333 c 3.68563,-1.0834 6.517991,-3.17398 8.570987,-6.326291 6.308899,-9.687106 1.791725,-23.231197 -8.678651,-26.021685 -0.857756,-0.228603 -2.190902,-0.270499 -10.243899,-0.32193 l -9.257812,-0.05912 v 0.70101 0.70101 l 9.101562,0.06372 c 9.875633,0.06914 9.833755,0.0657 12.024085,0.9876 5.662948,2.383502 9.32433,9.12049 8.57515,15.778387 -0.730503,6.491925 -4.694414,11.524265 -10.298452,13.074283 -1.145348,0.316791 -1.60809,0.334461 -10.300783,0.393318 l -9.101562,0.06163 v 0.700064 0.700064 l 9.257812,-0.05527 c 8.795794,-0.05251 9.312397,-0.07132 10.351563,-0.376782 z m -0.485856,-3.175363 c 4.118395,-1.053308 7.429276,-4.61768 8.712334,-9.379375 0.301916,-1.120469 0.355997,-1.694578 0.345892,-3.671875 -0.01439,-2.816304 -0.292831,-4.041707 -1.455639,-6.40625 C 52.005623,17.895202 49.3806,15.631425 46.125587,14.729416 45.008598,14.419882 44.578644,14.40625 35.932828,14.40625 H 26.90625 v 0.703125 0.703125 h 8.803131 c 8.255202,0 8.878249,0.01921 10.009992,0.308663 1.866524,0.477376 2.952482,1.128681 4.562044,2.73609 1.196278,1.194679 1.537608,1.654864 2.149983,2.898631 1.056781,2.146381 1.383906,3.548482 1.383906,5.931616 0,2.384228 -0.326965,3.78453 -1.386384,5.9375 -0.616892,1.253659 -0.951064,1.703894 -2.149985,2.896708 -1.088264,1.082722 -1.693054,1.546122 -2.591437,1.985595 -2.134609,1.044216 -2.204088,1.050316 -11.992188,1.052888 l -8.789062,0.0023 v 0.703125 0.703125 h 8.959381 c 8.405522,0 9.033858,-0.01905 10.164138,-0.308125 z"
       id="path3162"
       inkscape:connector-curvature="0" />
    <path
       style="opacity:0.91600001;fill:#caa669;fill-opacity:0;fill-rule:nonzero;stroke-width:0.15625"
       d="m 22.53125,41.913144 v -7.180605 l 10.976562,-0.04596 10.976563,-0.04596 0.903841,-0.364811 c 2.003161,-0.80852 3.640298,-3.014644 4.048462,-5.455502 0.523819,-3.132481 -1.300639,-6.612043 -4.048462,-7.721127 L 44.484375,20.734375 33.507812,20.68934 22.53125,20.644304 v -7.18711 -7.1871096 l 11.835937,0.048227 11.835938,0.048227 1.328125,0.3675261 C 54.439106,8.645645 59.697514,14.294032 61.606637,21.853325 64.437072,33.060605 58.663953,44.943133 48.790998,48.231128 46.227355,49.0849 46.07403,49.09375 33.84563,49.09375 H 22.53125 Z m 23.554631,5.225608 c 5.333555,-1.011758 9.890975,-4.614193 12.540105,-9.912386 0.642397,-1.284779 1.620072,-4.272093 1.894555,-5.788866 0.309746,-1.711652 0.270703,-6.132169 -0.06926,-7.840972 -0.993076,-4.99169 -3.712333,-9.497597 -7.4433,-12.333823 C 51.711652,10.277254 48.920784,8.9009019 47.296875,8.4461998 46.066116,8.1015816 45.877912,8.0953475 35.070312,8.0412028 L 24.09375,7.9862117 V 13.461856 18.9375 h 9.822423 c 6.02768,0 10.147318,0.06161 10.663386,0.159485 1.962819,0.372241 3.817713,1.668285 5.009385,3.500138 1.903312,2.925799 1.904743,7.241468 0.0034,10.180754 -1.158233,1.790487 -3.082449,3.134062 -5.012758,3.500137 -0.51607,0.09787 -4.635708,0.159486 -10.663388,0.159486 H 24.09375 v 5.46875 5.46875 h 10.373364 c 8.604045,0 10.585784,-0.0403 11.618767,-0.236248 z"
       id="path3164"
       inkscape:connector-curvature="0" />
    <path
       style="opacity:0.91600001;fill:#caa669;fill-opacity:0;fill-rule:nonzero;stroke-width:0.15625"
       d="M 25.34375,41.915631 V 37.84375 h 9.431798 c 5.616526,0 9.764132,-0.06303 10.253363,-0.155806 2.449028,-0.464449 4.980609,-2.585658 6.247556,-5.234819 0.840867,-1.758239 1.022814,-2.648661 1.005724,-4.921875 -0.01234,-1.641627 -0.07757,-2.144177 -0.408958,-3.151039 C 50.704055,20.827898 48.0416,18.253264 44.963491,17.698382 44.372812,17.591902 40.644596,17.53125 34.690053,17.53125 H 25.34375 V 13.457223 9.3831952 l 9.492187,0.093683 c 5.220704,0.051526 9.984375,0.1321456 10.585938,0.1791552 3.488669,0.2726244 7.650177,2.8581156 10.273433,6.3827516 1.101017,1.479338 2.478404,4.238685 2.928872,5.867465 1.316895,4.761569 0.943129,10.036986 -1.002824,14.154083 -1.223279,2.58812 -3.166553,5.082884 -5.153048,6.615453 -2.162952,1.668706 -5.079385,2.886687 -7.294111,3.046219 -0.637214,0.0459 -5.359744,0.124417 -10.49451,0.174481 l -9.335937,0.09103 z m 21.994137,1.690574 c 2.317116,-0.81741 3.900608,-1.815372 5.672475,-3.574955 2.265835,-2.250127 3.614165,-4.649239 4.472054,-7.957223 0.482507,-1.860529 0.650103,-4.976096 0.370529,-6.888104 -0.949236,-6.491861 -4.932167,-11.525758 -10.71232,-13.53895 l -1.25,-0.435367 -9.492188,-0.05588 -9.492187,-0.05588 v 0.715698 0.715698 l 2.382812,0.01102 c 1.310547,0.0061 5.546875,0.06516 9.414063,0.131322 l 7.03125,0.120299 1.368939,0.475669 c 4.396384,1.527619 7.649553,5.26724 9.060959,10.415859 0.296922,1.083135 0.346936,1.654435 0.343514,3.923954 -0.0033,2.219606 -0.05984,2.867742 -0.343684,3.942822 -1.421697,5.384844 -4.643275,9.037236 -9.414103,10.673026 -0.962422,0.329991 -1.367581,0.354624 -7.734375,0.470263 -3.695313,0.06712 -7.931641,0.127934 -9.414063,0.135148 l -2.695312,0.01312 v 0.713958 0.713958 l 9.414062,-0.0499 9.414063,-0.04989 z m -0.743437,-3.04848 c 4.01902,-1.528011 6.597691,-4.346652 8.057861,-8.807725 0.403994,-1.234269 0.43478,-1.510317 0.43565,-3.90625 0.0011,-3.043555 -0.194234,-4.030242 -1.231319,-6.219549 -1.47647,-3.11686 -3.523217,-5.221482 -6.247267,-6.423918 -1.739161,-0.767691 -2.057358,-0.789261 -11.679688,-0.791723 l -9.023437,-0.0023 v 0.683206 0.683205 l 9.023437,0.08385 c 9.884988,0.09185 9.727522,0.07748 11.750729,1.072605 0.738964,0.363464 1.440236,0.917769 2.527609,1.997894 1.309714,1.300986 1.597284,1.687391 2.217208,2.979244 1.075176,2.240548 1.267439,3.120909 1.262576,5.78125 -0.0049,2.666212 -0.202914,3.573031 -1.262576,5.78125 -0.620317,1.292675 -0.907469,1.678323 -2.223477,2.986167 -1.671369,1.661 -3.023829,2.453389 -4.779881,2.800472 -0.621695,0.122878 -3.898175,0.212419 -9.726563,0.265814 l -8.789062,0.08052 v 0.690357 0.690354 l 9.414062,-0.04885 c 9.112516,-0.04729 9.441613,-0.05933 10.274138,-0.375852 z"
       id="path3166"
       inkscape:connector-curvature="0" />
    <path
       style="opacity:0.91600001;fill:#caa669;fill-opacity:0;fill-rule:nonzero;stroke-width:0.15625"
       d="m 22.53125,41.913144 v -7.180605 l 10.976562,-0.04596 10.976563,-0.04596 0.903841,-0.364811 c 2.003161,-0.80852 3.640298,-3.014644 4.048462,-5.455502 0.523819,-3.132481 -1.300639,-6.612043 -4.048462,-7.721127 L 44.484375,20.734375 33.507812,20.68934 22.53125,20.644304 v -7.18711 -7.1871096 l 11.835937,0.048227 11.835938,0.048227 1.328125,0.3675261 C 54.439106,8.645645 59.697514,14.294032 61.606637,21.853325 64.437072,33.060605 58.663953,44.943133 48.790998,48.231128 46.227355,49.0849 46.07403,49.09375 33.84563,49.09375 H 22.53125 Z m 23.554631,5.225608 c 5.333555,-1.011758 9.890975,-4.614193 12.540105,-9.912386 0.642397,-1.284779 1.620072,-4.272093 1.894555,-5.788866 0.309746,-1.711652 0.270703,-6.132169 -0.06926,-7.840972 -0.993076,-4.99169 -3.712333,-9.497597 -7.4433,-12.333823 C 51.711652,10.277254 48.920784,8.9009019 47.296875,8.4461998 46.066116,8.1015816 45.877912,8.0953475 35.070312,8.0412028 L 24.09375,7.9862117 V 13.461856 18.9375 h 9.822423 c 6.02768,0 10.147318,0.06161 10.663386,0.159485 1.962819,0.372241 3.817713,1.668285 5.009385,3.500138 1.903312,2.925799 1.904743,7.241468 0.0034,10.180754 -1.158233,1.790487 -3.082449,3.134062 -5.012758,3.500137 -0.51607,0.09787 -4.635708,0.159486 -10.663388,0.159486 H 24.09375 v 5.46875 5.46875 h 10.373364 c 8.604045,0 10.585784,-0.0403 11.618767,-0.236248 z"
       id="path3168"
       inkscape:connector-curvature="0" />
    <path
       style="opacity:0.91600001;fill:#caa669;fill-opacity:0;fill-rule:nonzero;stroke-width:0.15625"
       d="m 22.53125,41.913144 v -7.180605 l 10.976562,-0.04596 10.976563,-0.04596 0.903841,-0.364811 c 2.003161,-0.80852 3.640298,-3.014644 4.048462,-5.455502 0.523819,-3.132481 -1.300639,-6.612043 -4.048462,-7.721127 L 44.484375,20.734375 33.507812,20.68934 22.53125,20.644304 v -7.18711 -7.1871096 l 11.835937,0.048227 11.835938,0.048227 1.328125,0.3675261 C 54.439106,8.645645 59.697514,14.294032 61.606637,21.853325 64.437072,33.060605 58.663953,44.943133 48.790998,48.231128 46.227355,49.0849 46.07403,49.09375 33.84563,49.09375 H 22.53125 Z m 23.554631,5.225608 c 5.333555,-1.011758 9.890975,-4.614193 12.540105,-9.912386 0.642397,-1.284779 1.620072,-4.272093 1.894555,-5.788866 0.309746,-1.711652 0.270703,-6.132169 -0.06926,-7.840972 -0.993076,-4.99169 -3.712333,-9.497597 -7.4433,-12.333823 C 51.711652,10.277254 48.920784,8.9009019 47.296875,8.4461998 46.066116,8.1015816 45.877912,8.0953475 35.070312,8.0412028 L 24.09375,7.9862117 V 13.461856 18.9375 h 9.822423 c 6.02768,0 10.147318,0.06161 10.663386,0.159485 1.962819,0.372241 3.817713,1.668285 5.009385,3.500138 1.903312,2.925799 1.904743,7.241468 0.0034,10.180754 -1.158233,1.790487 -3.082449,3.134062 -5.012758,3.500137 -0.51607,0.09787 -4.635708,0.159486 -10.663388,0.159486 H 24.09375 v 5.46875 5.46875 h 10.373364 c 8.604045,0 10.585784,-0.0403 11.618767,-0.236248 z"
       id="path3170"
       inkscape:connector-curvature="0" />
    <path
       style="opacity:0.91600001;fill:#caa669;fill-opacity:0;fill-rule:nonzero;stroke-width:0.15625"
       d="m 22.53125,41.913144 v -7.180605 l 10.976562,-0.04596 10.976563,-0.04596 0.903841,-0.364811 c 2.003161,-0.80852 3.640298,-3.014644 4.048462,-5.455502 0.523819,-3.132481 -1.300639,-6.612043 -4.048462,-7.721127 L 44.484375,20.734375 33.507812,20.68934 22.53125,20.644304 v -7.18711 -7.1871096 l 11.835937,0.048227 11.835938,0.048227 1.328125,0.3675261 C 54.439106,8.645645 59.697514,14.294032 61.606637,21.853325 64.437072,33.060605 58.663953,44.943133 48.790998,48.231128 46.227355,49.0849 46.07403,49.09375 33.84563,49.09375 H 22.53125 Z m 23.554631,5.225608 c 5.333555,-1.011758 9.890975,-4.614193 12.540105,-9.912386 0.642397,-1.284779 1.620072,-4.272093 1.894555,-5.788866 0.309746,-1.711652 0.270703,-6.132169 -0.06926,-7.840972 -0.993076,-4.99169 -3.712333,-9.497597 -7.4433,-12.333823 C 51.711652,10.277254 48.920784,8.9009019 47.296875,8.4461998 46.066116,8.1015816 45.877912,8.0953475 35.070312,8.0412028 L 24.09375,7.9862117 V 13.461856 18.9375 h 9.822423 c 6.02768,0 10.147318,0.06161 10.663386,0.159485 1.962819,0.372241 3.817713,1.668285 5.009385,3.500138 1.903312,2.925799 1.904743,7.241468 0.0034,10.180754 -1.158233,1.790487 -3.082449,3.134062 -5.012758,3.500137 -0.51607,0.09787 -4.635708,0.159486 -10.663388,0.159486 H 24.09375 v 5.46875 5.46875 h 10.373364 c 8.604045,0 10.585784,-0.0403 11.618767,-0.236248 z"
       id="path3172"
       inkscape:connector-curvature="0" />
    <path
       style="opacity:0.91600001;fill:#caa669;fill-opacity:1;fill-rule:nonzero;stroke-width:0.15625"
       d="m 22.53125,41.913144 v -7.180605 l 10.976562,-0.04596 10.976563,-0.04596 0.903841,-0.364811 c 2.003161,-0.80852 3.640298,-3.014644 4.048462,-5.455502 0.523819,-3.132481 -1.300639,-6.612043 -4.048462,-7.721127 L 44.484375,20.734375 33.507812,20.68934 22.53125,20.644304 v -7.18711 -7.1871096 l 11.835937,0.048227 11.835938,0.048227 1.328125,0.3675261 C 54.439106,8.645645 59.697514,14.294032 61.606637,21.853325 64.437072,33.060605 58.663953,44.943133 48.790998,48.231128 46.227355,49.0849 46.07403,49.09375 33.84563,49.09375 H 22.53125 Z m 23.554631,5.225608 c 5.333555,-1.011758 9.890975,-4.614193 12.540105,-9.912386 0.642397,-1.284779 1.620072,-4.272093 1.894555,-5.788866 0.309746,-1.711652 0.270703,-6.132169 -0.06926,-7.840972 -0.993076,-4.99169 -3.712333,-9.497597 -7.4433,-12.333823 C 51.711652,10.277254 48.920784,8.9009019 47.296875,8.4461998 46.066116,8.1015816 45.877912,8.0953475 35.070312,8.0412028 L 24.09375,7.9862117 V 13.461856 18.9375 h 9.822423 c 6.02768,0 10.147318,0.06161 10.663386,0.159485 1.962819,0.372241 3.817713,1.668285 5.009385,3.500138 1.903312,2.925799 1.904743,7.241468 0.0034,10.180754 -1.158233,1.790487 -3.082449,3.134062 -5.012758,3.500137 -0.51607,0.09787 -4.635708,0.159486 -10.663388,0.159486 H 24.09375 v 5.46875 5.46875 h 10.373364 c 8.604045,0 10.585784,-0.0403 11.618767,-0.236248 z"
       id="path3174"
       inkscape:connector-curvature="0" />
    <path
       style="opacity:0.91600001;fill:#caa669;fill-opacity:1;fill-rule:nonzero;stroke-width:0.15625"
       d="M 25.34375,41.915631 V 37.84375 h 9.431798 c 5.616526,0 9.764132,-0.06303 10.253363,-0.155806 2.449028,-0.464449 4.980609,-2.585658 6.247556,-5.234819 0.840867,-1.758239 1.022814,-2.648661 1.005724,-4.921875 -0.01234,-1.641627 -0.07757,-2.144177 -0.408958,-3.151039 C 50.704055,20.827898 48.0416,18.253264 44.963491,17.698382 44.372812,17.591902 40.644596,17.53125 34.690053,17.53125 H 25.34375 V 13.457223 9.3831952 l 9.492187,0.093683 c 5.220704,0.051526 9.984375,0.1321456 10.585938,0.1791552 3.488669,0.2726244 7.650177,2.8581156 10.273433,6.3827516 1.101017,1.479338 2.478404,4.238685 2.928872,5.867465 1.316895,4.761569 0.943129,10.036986 -1.002824,14.154083 -1.223279,2.58812 -3.166553,5.082884 -5.153048,6.615453 -2.162952,1.668706 -5.079385,2.886687 -7.294111,3.046219 -0.637214,0.0459 -5.359744,0.124417 -10.49451,0.174481 l -9.335937,0.09103 z m 21.994137,1.690574 c 2.317116,-0.81741 3.900608,-1.815372 5.672475,-3.574955 2.265835,-2.250127 3.614165,-4.649239 4.472054,-7.957223 0.482507,-1.860529 0.650103,-4.976096 0.370529,-6.888104 -0.949236,-6.491861 -4.932167,-11.525758 -10.71232,-13.53895 l -1.25,-0.435367 -9.492188,-0.05588 -9.492187,-0.05588 v 0.715698 0.715698 l 2.382812,0.01102 c 1.310547,0.0061 5.546875,0.06516 9.414063,0.131322 l 7.03125,0.120299 1.368939,0.475669 c 4.396384,1.527619 7.649553,5.26724 9.060959,10.415859 0.296922,1.083135 0.346936,1.654435 0.343514,3.923954 -0.0033,2.219606 -0.05984,2.867742 -0.343684,3.942822 -1.421697,5.384844 -4.643275,9.037236 -9.414103,10.673026 -0.962422,0.329991 -1.367581,0.354624 -7.734375,0.470263 -3.695313,0.06712 -7.931641,0.127934 -9.414063,0.135148 l -2.695312,0.01312 v 0.713958 0.713958 l 9.414062,-0.0499 9.414063,-0.04989 z m -0.743437,-3.04848 c 4.01902,-1.528011 6.597691,-4.346652 8.057861,-8.807725 0.403994,-1.234269 0.43478,-1.510317 0.43565,-3.90625 0.0011,-3.043555 -0.194234,-4.030242 -1.231319,-6.219549 -1.47647,-3.11686 -3.523217,-5.221482 -6.247267,-6.423918 -1.739161,-0.767691 -2.057358,-0.789261 -11.679688,-0.791723 l -9.023437,-0.0023 v 0.683206 0.683205 l 9.023437,0.08385 c 9.884988,0.09185 9.727522,0.07748 11.750729,1.072605 0.738964,0.363464 1.440236,0.917769 2.527609,1.997894 1.309714,1.300986 1.597284,1.687391 2.217208,2.979244 1.075176,2.240548 1.267439,3.120909 1.262576,5.78125 -0.0049,2.666212 -0.202914,3.573031 -1.262576,5.78125 -0.620317,1.292675 -0.907469,1.678323 -2.223477,2.986167 -1.671369,1.661 -3.023829,2.453389 -4.779881,2.800472 -0.621695,0.122878 -3.898175,0.212419 -9.726563,0.265814 l -8.789062,0.08052 v 0.690357 0.690354 l 9.414062,-0.04885 c 9.112516,-0.04729 9.441613,-0.05933 10.274138,-0.375852 z"
       id="path3176"
       inkscape:connector-curvature="0" />
    <path
       style="opacity:0.91600001;fill:#caa669;fill-opacity:1;fill-rule:nonzero;stroke-width:0.15625"
       d="M 68.46875,64.640625 V 60.96875 H 69.328125 70.1875 V 64.640625 68.3125 H 69.328125 68.46875 Z"
       id="path3178"
       inkscape:connector-curvature="0" />
    <path
       style="opacity:0.91600001;fill:#caa669;fill-opacity:1;fill-rule:nonzero;stroke-width:0.15625"
       d="M 73.3125,65.265625 V 62.21875 H 72.21875 71.125 v -0.625 -0.625 h 3.046875 3.046875 v 0.618155 0.618155 l -1.132813,0.04591 -1.132812,0.04591 -0.04244,3.007812 -0.04244,3.007813 H 74.090376 73.3125 Z"
       id="path3180"
       inkscape:connector-curvature="0" />
    <path
       style="opacity:0.91600001;fill:#caa669;fill-opacity:1;fill-rule:nonzero;stroke-width:0.15625"
       d="M 58.3125,64.640625 V 60.96875 h 0.78125 0.78125 l 0.0047,1.367187 0.0047,1.367188 1.284333,-1.378742 1.284334,-1.378742 0.843718,0.05062 0.843718,0.05062 -1.52892,1.6895 -1.528921,1.689501 0.459363,0.497999 c 0.25265,0.2739 1.043209,1.148391 1.756798,1.943312 l 1.297434,1.445313 h -0.99855 -0.99855 l -1.323045,-1.500125 -1.323045,-1.500124 -0.04472,1.500124 -0.04472,1.500125 H 59.088092 58.3125 Z"
       id="path3182"
       inkscape:connector-curvature="0" />
    <path
       style="opacity:0.91600001;fill:#caa669;fill-opacity:1;fill-rule:nonzero;stroke-width:0.15625"
       d="m 53.412072,68.239873 c -1.378311,-0.491354 -2.174622,-1.806027 -2.191239,-3.617635 -0.0086,-0.938546 0.06257,-1.254423 0.455992,-2.023706 0.391254,-0.765036 0.600732,-0.981851 1.303152,-1.3488 0.981736,-0.512865 2.151674,-0.582086 3.141861,-0.185891 0.598361,0.239416 0.628162,0.28353 0.628162,0.92986 v 0.67852 l -0.664063,-0.301429 c -1.312681,-0.595848 -2.433544,-0.277394 -2.938534,0.834883 -0.646103,1.423087 -0.193819,3.345021 0.894152,3.799604 0.64798,0.270743 1.510854,0.199744 2.256097,-0.185636 L 56.75,66.585725 v 0.701084 0.701085 l -0.80961,0.240428 c -0.985626,0.292699 -1.730119,0.296101 -2.528318,0.01155 z"
       id="path3184"
       inkscape:connector-curvature="0" />
    <path
       style="opacity:0.91600001;fill:#caa669;fill-opacity:1;fill-rule:nonzero;stroke-width:0.15625"
       d="M 48.15625,64.640625 V 60.96875 h 0.78125 0.78125 V 64.640625 68.3125 H 48.9375 48.15625 Z"
       id="path3186"
       inkscape:connector-curvature="0" />
    <path
       style="opacity:0.91600001;fill:#caa669;fill-opacity:1;fill-rule:nonzero;stroke-width:0.15625"
       d="M 41.4375,64.640625 V 60.96875 h 1.801894 c 2.085245,0 2.721988,0.192803 3.194101,0.96716 0.429127,0.703853 0.429127,2.049327 0,2.75318 -0.409311,0.671349 -1.147293,0.96716 -2.412851,0.96716 H 43 V 66.984375 68.3125 H 42.21875 41.4375 Z M 44.875,64.09375 c 0.40177,-0.40177 0.40177,-1.16073 0,-1.5625 -0.229167,-0.229167 -0.520833,-0.3125 -1.09375,-0.3125 H 43 v 1.09375 1.09375 h 0.78125 c 0.572917,0 0.864583,-0.08333 1.09375,-0.3125 z"
       id="path3188"
       inkscape:connector-curvature="0" />
    <path
       style="opacity:0.91600001;fill:#caa669;fill-opacity:1;fill-rule:nonzero;stroke-width:0.15625"
       d="M 33.46875,65.265625 V 62.21875 H 32.375 31.28125 v -0.625 -0.625 H 34.25 37.21875 v 0.625 0.625 H 36.125 35.03125 V 65.265625 68.3125 H 34.25 33.46875 Z"
       id="path3190"
       inkscape:connector-curvature="0" />
    <path
       style="opacity:0.91600001;fill:#caa669;fill-opacity:1;fill-rule:nonzero;stroke-width:0.15625"
       d="m 27.417557,63 c 0,-0.386719 0.03047,-0.544922 0.06771,-0.351563 0.03724,0.19336 0.03724,0.509766 0,0.703125 -0.03724,0.19336 -0.06771,0.03516 -0.06771,-0.351562 z"
       id="path3192"
       inkscape:connector-curvature="0" />
    <path
       style="opacity:0.91600001;fill:#caa669;fill-opacity:1;fill-rule:nonzero;stroke-width:0.15625"
       d="M 25.8125,64.640625 V 60.96875 h 2.265625 2.265625 v 0.625 0.625 H 28.859375 27.375 V 63 63.78125 h 1.40625 1.40625 V 64.484375 65.1875 H 28.78125 27.375 V 66.75 68.3125 H 26.59375 25.8125 Z"
       id="path3198"
       inkscape:connector-curvature="0" />
    <path
       style="opacity:0.91600001;fill:#caa669;fill-opacity:1;fill-rule:nonzero;stroke-width:0.15625"
       d="m 18.044282,68.109974 c 0.04274,-0.111389 0.588536,-1.763732 1.212871,-3.671875 l 1.135154,-3.469349 h 0.97835 0.97835 l 1.184871,3.554758 c 0.65168,1.955117 1.184872,3.607461 1.184872,3.671875 0,0.06441 -0.35055,0.117117 -0.779,0.117117 h -0.779001 l -0.178458,-0.708724 -0.178459,-0.708725 -1.412715,0.04466 -1.412714,0.04466 -0.220972,0.664062 c -0.220886,0.663801 -0.221282,0.664063 -1.005919,0.664063 -0.578673,0 -0.764523,-0.05322 -0.70723,-0.202526 z m 4.28996,-2.649037 c -0.04081,-0.107421 -0.263737,-0.817794 -0.495403,-1.578606 -0.231665,-0.760811 -0.4442,-1.358468 -0.4723,-1.328125 -0.0281,0.03034 -0.262355,0.740716 -0.520567,1.578606 l -0.469477,1.523438 h 1.015969 c 0.748179,0 0.996414,-0.05148 0.941778,-0.195313 z"
       id="path3200"
       inkscape:connector-curvature="0" />
    <path
       style="opacity:0.91600001;fill:#caa669;fill-opacity:1;fill-rule:nonzero;stroke-width:0.15625"
       d="M 11.75,64.640625 V 60.96875 l 1.757812,2.43e-4 c 2.501922,3.45e-4 3.234115,0.43461 3.239885,1.921579 0.0029,0.753829 -0.352715,1.446108 -0.886605,1.72584 l -0.416229,0.218085 0.357717,0.191444 c 0.221136,0.118348 0.619441,0.751519 1.043193,1.658324 0.377012,0.806784 0.685477,1.503185 0.685477,1.547557 0,0.04437 -0.376171,0.08068 -0.835935,0.08068 H 15.859381 L 15.426552,67.294093 C 14.816861,65.859546 14.500518,65.5 13.848034,65.5 H 13.3125 v 1.40625 1.40625 H 12.53125 11.75 Z M 14.875,63.9375 c 0.37461,-0.37461 0.401034,-0.897817 0.06926,-1.371483 -0.189296,-0.270258 -0.397194,-0.347267 -0.9375,-0.347267 H 13.3125 V 63.234375 64.25 h 0.625 c 0.416667,0 0.729167,-0.104167 0.9375,-0.3125 z"
       id="path3202"
       inkscape:connector-curvature="0" />
    <path
       style="opacity:0.91600001;fill:#caa669;fill-opacity:1;fill-rule:nonzero;stroke-width:0.15625"
       d="m 4.09375,64.627882 v -3.684618 l 1.9140625,0.05181 c 2.2422066,0.06069 2.8783656,0.30018 3.6322275,1.367411 0.406986,0.576165 0.475573,0.825904 0.524855,1.911107 0.06983,1.537757 -0.2170303,2.389308 -1.0620722,3.152753 -0.72769,0.657424 -1.6596367,0.88616 -3.6105136,0.88616 H 4.09375 Z m 3.59375,1.98011 C 8.8716289,65.787003 8.934328,63.36077 7.7907784,62.611488 7.5754131,62.470375 7.0070402,62.314444 6.5277275,62.264975 L 5.65625,62.17503 v 2.339568 c 0,1.286763 0.049093,2.388662 0.1090961,2.448665 0.1799419,0.179942 1.5028787,-0.06458 1.9221539,-0.355271 z"
       id="path3204"
       inkscape:connector-curvature="0" />
  </g>
</svg>
